<svg xmlns="http://www.w3.org/2000/svg" preserveAspectRatio="xMidYMid" width="321" height="95" viewBox="0 0 321 95"><defs><style>.cls-2{fill:#267cb3}</style></defs><path d="M319.402 53.881h-6.97c-3.485-.095-4.615 3.781-4.615 3.781l-8.383 26.184c-3.485 11.343-8.697 10.54-8.697 10.54h-25.306c-2.26.047-2.072-1.749-2.072-1.749V70.896c0-1.418 1.884-1.229 1.884-1.229h9.325c3.956-.189 5.557-5.672 5.557-5.672l9.231-26.846c2.823-8.602 12.056-8.98 12.056-8.98h17.99c1.507 0 1.601 1.607 1.601 1.607v22.498c0 1.607-1.601 1.607-1.601 1.607zm-63.484 40.517h-41.255s-26.656-3.274-27.598-34.751h21.852s-.235 10.445 9.702 11.154c0 0 9.748.378 10.549-7.184V53.313H168.98s-2.072.496-1.978 1.808v39.277h-24.489V55.121s.094-1.335-2.072-1.335H30.992s-6.97-.473-6.97 5.861V95H.003V44.144S-.844 30.816 16.455 30.69h127.314l.026-9.605S143.549 0 163.517 0h28.446s1.554.284 1.46 2.647v21.505s.047 2.127-1.884 2.268h-19.026s-3.485-.141-3.627 1.324c0 0-.847 2.737 1.507 2.952h63.328s21.538 2.01 23.987 22.712v39.229s.376 1.443-1.79 1.761zM114.892 63.995H77.334s-1.758.126-1.727 1.607c0 0-.44 2.048 1.758 2.174h49.253s1.531.047 1.531 1.914v23.136s.094 1.796-2.402 1.701l-48.445.004s-26.813-1.516-29.827-36.68h67.417v6.144z" id="path-1" class="cls-2" fill-rule="evenodd"/></svg>