<svg xmlns="http://www.w3.org/2000/svg" xmlns:xlink="http://www.w3.org/1999/xlink" preserveAspectRatio="xMidYMid" width="321" height="95" viewBox="0 0 321 95">
  <defs>
    <style>

      .cls-2 {
        fill: #267cb3;
      }
    </style>
  </defs>
  <path d="M319.402,53.881 C319.402,53.881 312.432,53.881 312.432,53.881 C308.947,53.786 307.817,57.662 307.817,57.662 C307.817,57.662 299.434,83.846 299.434,83.846 C295.949,95.189 290.737,94.386 290.737,94.386 C290.737,94.386 265.431,94.386 265.431,94.386 C263.171,94.433 263.359,92.637 263.359,92.637 C263.359,92.637 263.359,70.896 263.359,70.896 C263.359,69.478 265.243,69.667 265.243,69.667 C265.243,69.667 274.568,69.667 274.568,69.667 C278.524,69.478 280.125,63.995 280.125,63.995 C280.125,63.995 289.356,37.149 289.356,37.149 C292.179,28.547 301.412,28.169 301.412,28.169 C301.412,28.169 319.402,28.169 319.402,28.169 C320.909,28.169 321.003,29.776 321.003,29.776 C321.003,29.776 321.003,52.274 321.003,52.274 C321.003,53.881 319.402,53.881 319.402,53.881 ZM255.918,94.398 C255.918,94.398 214.663,94.398 214.663,94.398 C214.663,94.398 188.007,91.124 187.065,59.647 C187.065,59.647 208.917,59.647 208.917,59.647 C208.917,59.647 208.682,70.092 218.619,70.801 C218.619,70.801 228.367,71.179 229.168,63.617 C229.168,63.617 229.168,53.313 229.168,53.313 C229.168,53.313 168.980,53.313 168.980,53.313 C168.980,53.313 166.908,53.809 167.002,55.121 C167.002,55.121 167.002,94.398 167.002,94.398 C167.002,94.398 142.513,94.398 142.513,94.398 C142.513,94.398 142.513,55.121 142.513,55.121 C142.513,55.121 142.607,53.786 140.441,53.786 C140.441,53.786 30.992,53.786 30.992,53.786 C30.992,53.786 24.022,53.313 24.022,59.647 C24.022,59.647 24.022,95.000 24.022,95.000 C24.022,95.000 0.003,95.000 0.003,95.000 C0.003,95.000 0.003,44.144 0.003,44.144 C0.003,44.144 -0.844,30.816 16.455,30.690 C16.455,30.690 141.791,30.690 141.791,30.690 C141.791,30.690 143.769,30.690 143.769,30.690 C143.769,30.690 143.795,21.085 143.795,21.085 C143.795,21.085 143.549,-0.000 163.517,-0.000 C163.517,-0.000 191.963,-0.000 191.963,-0.000 C191.963,-0.000 193.517,0.284 193.423,2.647 C193.423,2.647 193.423,24.152 193.423,24.152 C193.423,24.152 193.470,26.279 191.539,26.420 C191.539,26.420 172.513,26.420 172.513,26.420 C172.513,26.420 169.028,26.279 168.886,27.744 C168.886,27.744 168.039,30.481 170.393,30.696 C170.393,30.696 233.721,30.696 233.721,30.696 C233.721,30.696 255.259,32.706 257.708,53.408 C257.708,53.408 257.708,92.637 257.708,92.637 C257.708,92.637 258.084,94.080 255.918,94.398 ZM114.892,63.995 C114.892,63.995 77.334,63.995 77.334,63.995 C77.334,63.995 75.576,64.121 75.607,65.602 C75.607,65.602 75.167,67.650 77.365,67.776 C77.365,67.776 126.618,67.776 126.618,67.776 C126.618,67.776 128.149,67.823 128.149,69.690 C128.149,69.690 128.149,92.826 128.149,92.826 C128.149,92.826 128.243,94.622 125.747,94.527 C125.747,94.527 77.302,94.531 77.302,94.531 C77.302,94.531 50.489,93.015 47.475,57.851 C47.475,57.851 114.892,57.851 114.892,57.851 C114.892,57.851 114.892,63.995 114.892,63.995 Z" id="path-1" class="cls-2" fill-rule="evenodd"/>
</svg>
